<svg xmlns="http://www.w3.org/2000/svg" width="31.301" height="31.04" viewBox="0 0 31.301 31.04">
  <g id="Icon_feather-box" data-name="Icon feather-box" transform="translate(-2.849 -1.463)">
    <path id="Path_7" data-name="Path 7" d="M32.5,22.554V11.38a2.755,2.755,0,0,0-1.556-2.416L20.056,3.377a3.42,3.42,0,0,0-3.111,0L6.056,8.964A2.755,2.755,0,0,0,4.5,11.38V22.554A2.755,2.755,0,0,0,6.056,24.97l10.889,5.587a3.42,3.42,0,0,0,3.111,0L30.944,24.97A2.755,2.755,0,0,0,32.5,22.554Z" fill="none" stroke="#fff" stroke-linecap="round" stroke-linejoin="round" stroke-width="3"/>
    <path id="Path_8" data-name="Path 8" d="M4.905,10.44l13.763,4.43,13.763-4.43" transform="translate(-0.168 0.339)" fill="none" stroke="#fff" stroke-linecap="round" stroke-linejoin="round" stroke-width="3"/>
    <path id="Path_9" data-name="Path 9" d="M18,26.843V18" transform="translate(0.5 4.16)" fill="none" stroke="#fff" stroke-linecap="round" stroke-linejoin="round" stroke-width="3"/>
  </g>
</svg>
